<svg id="Layer_1" data-name="Layer 1" xmlns="http://www.w3.org/2000/svg" viewBox="0 0 193.21 200"><defs><style>.cls-1{fill:#ebf5f7;}</style></defs><path class="cls-1" d="M169.13,0H126.29V30.43H0V200H175.85a17.38,17.38,0,0,0,17.36-17.36c0-.07,0-.13,0-.2s0-.14,0-.21V24.07A24.1,24.1,0,0,0,169.13,0ZM6.21,36.64H126.29V171.49h36.27a17.31,17.31,0,0,0,0,22.3H6.21ZM175.64,193.78A11.15,11.15,0,1,1,187,182.44,11.56,11.56,0,0,1,175.64,193.78ZM187,168.39v1a17.28,17.28,0,0,0-11.15-4.08H132.5V6.21h36.63A17.89,17.89,0,0,1,187,24.07V168.39ZM22.09,78.29H15.88v-32h32v6.2H22.09Zm25.77,106h-32v-32h6.21V178.1H47.86Zm72.62-66h-13v13h-6.21v-13h-13v-6.21h13v-13h6.21v13h13Z"/></svg>