<svg id="Layer_1" data-name="Layer 1" xmlns="http://www.w3.org/2000/svg" viewBox="0 0 209.55 200"><defs><style>.cls-1{fill:#ebf5f7;}</style></defs><path class="cls-1" d="M87.05,146.18H30.19V77.93Zm-50.53-6.33h37l-37-44.42Z"/><path class="cls-1" d="M0,0V181.13H150.91ZM6.33,163.23H21.05v-6.34H6.33V146.6H21.05v-6.33H6.33V130H21.05v-6.33H6.33V113.35H21.05V107H6.33V96.72H21.05V90.39H6.33V80.09H21.05V73.76H6.33V63.47H21.05V57.13H6.33V17.5L137.39,174.8H6.33Z"/><path class="cls-1" d="M193.74,155.91v0l-2.1-2.39L112.92,64.41a8.32,8.32,0,0,0-11.73-.73L86.86,76.34a8.32,8.32,0,0,0-.73,11.73l79,89.42.1.12.73.36,43.59,22ZM90,84.69a3.22,3.22,0,0,1,.28-4.52l14.33-12.66a3.22,3.22,0,0,1,4.52.28L116.31,76,97.18,92.86Zm74.7,77.63-1.36,5.37-62.73-71L119.69,79.8l61.62,69.74-6.54-.64,2.38,8.95-9.27-4.93,2.31,11.15Zm24.41,21.74-21.85-11,1.06-4.19,8.69,2.75-1.87-9,10,5.33-3.5-13.16,6.64.66,7.95,22.17A16.9,16.9,0,0,0,189.07,184.06Zm8.87-1.67,2.7,7.52-7-3.54A11.94,11.94,0,0,1,197.94,182.39Z"/></svg>