<svg id="Layer_1" data-name="Layer 1" xmlns="http://www.w3.org/2000/svg" viewBox="0 0 221.39 172.75"><defs><style>.cls-1{fill:#ebf5f7;}</style></defs><path class="cls-1" d="M40,147.05H59v-19H40Zm4-15H55v11H44Z"/><path class="cls-1" d="M40,125.05H59v-19H40Zm4-15H55v11H44Z"/><path class="cls-1" d="M40,103.06H59v-19H40Zm4-15H55v11H44Z"/><path class="cls-1" d="M40,81.06H59v-19H40Zm4-15H55v11H44Z"/><path class="cls-1" d="M40,59.07H59v-19H40Zm4-15H55v11H44Z"/><path class="cls-1" d="M64.7,147.05h19v-19h-19Zm4-15h11v11h-11Z"/><path class="cls-1" d="M64.7,125.05h19v-19h-19Zm4-15h11v11h-11Z"/><path class="cls-1" d="M64.7,103.06h19v-19h-19Zm4-15h11v11h-11Z"/><path class="cls-1" d="M64.7,81.06h19v-19h-19Zm4-15h11v11h-11Z"/><path class="cls-1" d="M64.7,59.07h19v-19h-19Zm4-15h11v11h-11Z"/><path class="cls-1" d="M84.19,18.08H39v19H84.19Zm-4,15H43v-11H80.19Z"/><path class="cls-1" d="M191,125.61H137.24V148.5H191Zm-4,18.89H141.24V129.61H187Z"/><path class="cls-1" d="M198.28,168.75V118.64H180.14v-6h18.7V86.27h-41.4v26.32h18.7v6h-46.6v50.11h-11V83.56H92.19V12.27H82.52A13.23,13.23,0,0,0,69.35,0H55.43A13.23,13.23,0,0,0,42.26,12.27H31.52V50.05H15.18v118.7H0v4H221.39v-4ZM161.44,90.27h33.4v18.32h-33.4ZM55.43,4H69.35a9.24,9.24,0,0,1,9,7.22H46.43A9.22,9.22,0,0,1,55.43,4Zm114,164.31H158.38V154.58h11.05Zm-35.89-45.67h60.74v45.67H173.43V150.58H154.38v17.73H133.54Zm-41-35.08h22v81.19h-22ZM74.64,168.75H48V154.58H74.64ZM35.52,16.27H88.19V168.75H78.64V150.58H44v18.17H35.52ZM19.18,54.05h12v114.7h-12Z"/></svg>