<svg id="Layer_1" data-name="Layer 1" xmlns="http://www.w3.org/2000/svg" viewBox="0 0 187.74 191.55"><defs><style>.cls-1{fill:#ebf5f7;}</style></defs><path class="cls-1" d="M127.86,85.62V19.45A9.83,9.83,0,1,0,116,9.83a9.63,9.63,0,0,0,.2,1.95L83.34,21.4V12.53a7.16,7.16,0,0,0-7.16-7.15H41a7.16,7.16,0,0,0-7.15,7.15V34L5,42.11a3.15,3.15,0,1,0-1,5.62A3.09,3.09,0,0,0,6,46l27.8-7.78v9.55A7.15,7.15,0,0,0,41,54.88h4.84V160.79H39.89a5.4,5.4,0,0,0-5.39,5.39v11.13H82.67V166.18a5.4,5.4,0,0,0-5.39-5.39H71.35V54.88h4.83a7.16,7.16,0,0,0,7.16-7.15V25.57l34.49-10.09a9.82,9.82,0,0,0,6,4V85.62H104.53V104.3h42.65V85.62Zm-78-6L66.36,96.14,49.82,112.68Zm0,43L66.27,139,49.82,155.47Zm17.53,21v16.34H51Zm0-9.15L50.53,117.63l16.82-16.82Zm0-43L50.69,74.81,67.35,58.15ZM49.82,70V55.32h14.7Zm28.85,96.16v7.13H38.5v-7.13a1.4,1.4,0,0,1,1.39-1.39H77.28A1.4,1.4,0,0,1,78.67,166.18Zm.67-118.45a3.16,3.16,0,0,1-3.16,3.15H41a3.16,3.16,0,0,1-3.15-3.15V12.53A3.16,3.16,0,0,1,41,9.38h35.2a3.16,3.16,0,0,1,3.16,3.15ZM120,9.83a5.83,5.83,0,1,1,5.83,5.83A5.83,5.83,0,0,1,120,9.83Zm23.15,90.47H108.53V89.62h34.65Z"/><path class="cls-1" d="M122.52,187a5.94,5.94,0,1,0-5.93-5.94A5.94,5.94,0,0,0,122.52,187Zm0-7.87a1.94,1.94,0,1,1-1.93,1.93A1.94,1.94,0,0,1,122.52,179.08Z"/><path class="cls-1" d="M135.82,187a5.94,5.94,0,1,0-5.94-5.94A5.95,5.95,0,0,0,135.82,187Zm0-7.87a1.94,1.94,0,1,1-1.94,1.93A1.94,1.94,0,0,1,135.82,179.08Z"/><path class="cls-1" d="M149.11,187a5.94,5.94,0,1,0-5.94-5.94A5.94,5.94,0,0,0,149.11,187Zm0-7.87a1.94,1.94,0,1,1-1.94,1.93A1.94,1.94,0,0,1,149.11,179.08Z"/><path class="cls-1" d="M177.38,143.73V104.25a5.2,5.2,0,0,0-8-5.26l-44.82,30.56a7.93,7.93,0,0,0-6.05,4.12l-.29.2h.19a7.89,7.89,0,0,0-.84,3.57v12.7h-3.1v17.78h5V170H118.2a10.76,10.76,0,0,0,0,21.51h35.23a10.76,10.76,0,1,0,0-21.51h-1.22v-2.13h7.33V150a17.33,17.33,0,0,0-17.27-17.35h-2v17.48h-6.83v-12.7a8,8,0,0,0-.11-1.29l40-27.31v34.9a12.36,12.36,0,1,0,4,0ZM160.19,180.8a6.76,6.76,0,0,1-6.76,6.75H118.2a6.76,6.76,0,0,1,0-13.51h35.23A6.76,6.76,0,0,1,160.19,180.8Zm-12-10.76H123.43v-2.13h24.78Zm-3.94-15.91V136.8A13.35,13.35,0,0,1,155.54,150v13.91H118.42v-9.78Zm-17.86-14.36h.12a4.47,4.47,0,0,0,.82-.08l.27-.07a4.75,4.75,0,0,0,.64-.2l.26-.1a5.31,5.31,0,0,0,.81-.44l.11-.08v11h-7.92V137.43a4.49,4.49,0,0,1,.08-.83,6.56,6.56,0,0,0,.49.9,5.19,5.19,0,0,0,3.34,2.18A5.41,5.41,0,0,0,126.41,139.77Zm46.53-35.48L132,132.21h0l-4.91,3.35a1.2,1.2,0,0,1-.91.19,1.21,1.21,0,0,1-.77-.51,1.19,1.19,0,0,1-.19-.9,1.17,1.17,0,0,1,.51-.77l.62-.43h0l5.83-4h0l39.42-26.89a1.22,1.22,0,0,1,.91-.19,1.2,1.2,0,0,1,.77.51,1.3,1.3,0,0,1,.18.46h-.06v.62A1.26,1.26,0,0,1,172.94,104.29Zm2.44,60a8.36,8.36,0,1,1,8.36-8.36A8.38,8.38,0,0,1,175.38,164.28Z"/></svg>