<svg id="Layer_1" data-name="Layer 1" xmlns="http://www.w3.org/2000/svg" viewBox="0 0 180.02 198.51"><defs><style>.cls-1{fill:#ebf5f7;}</style></defs><path class="cls-1" d="M9.69,158.8h86V36.55H9.69Zm5-117.25h76V153.8H14.69Z"/><rect class="cls-1" x="21.34" y="47.02" width="22.6" height="5"/><rect class="cls-1" x="21.34" y="56.01" width="22.6" height="5"/><rect class="cls-1" x="21.34" y="65" width="22.6" height="5"/><rect class="cls-1" x="50.64" y="132.9" width="33.77" height="5"/><rect class="cls-1" x="50.64" y="139.88" width="33.77" height="5"/><rect class="cls-1" x="21.34" y="73.98" width="63.35" height="5"/><rect class="cls-1" x="21.34" y="82.97" width="63.35" height="5"/><rect class="cls-1" x="21.34" y="91.95" width="63.35" height="5"/><rect class="cls-1" x="21.34" y="100.94" width="63.35" height="5"/><rect class="cls-1" x="21.34" y="109.93" width="63.35" height="5"/><rect class="cls-1" x="21.34" y="118.91" width="63.35" height="5"/><path class="cls-1" d="M180,57.7,155.87,46.53l1.38-3a7.51,7.51,0,0,0-3.66-9.95l-5.2-2.41a11.34,11.34,0,0,0-6.27-12.89L139,16.85a11.34,11.34,0,0,0-13.89,3.58L119.91,18a7.51,7.51,0,0,0-10,3.66l-1.38,3-3.25-1.5v-3.3H99.42l-12-5.53-2.55,5.53h-6.2v-3.3a7.5,7.5,0,0,0-7.49-7.49H65.48A11.33,11.33,0,0,0,54.38,0H51A11.35,11.35,0,0,0,39.84,9.08H34.11a7.51,7.51,0,0,0-7.5,7.49v3.3H0V175H64.07L115,198.51ZM136.9,21.38,140,22.83a6.34,6.34,0,0,1,3.67,5.91L130,22.42A6.36,6.36,0,0,1,136.9,21.38ZM110.34,32.79,112.07,29l1-2.27,1.39-3a2.49,2.49,0,0,1,3.31-1.22l33.68,15.57a2.49,2.49,0,0,1,1.22,3.31l-1.38,3-1.05,2.27-1.73,3.75a3,3,0,0,1-3.91,1.43L111.77,36.69A2.93,2.93,0,0,1,110.34,32.79Zm-3.86-3.58-.68,1.48a6.59,6.59,0,0,0-.47,1.33V28.68Zm-1.15,126.17V153.2l6.19,2.86,2.1-4.54-8.29-3.83v-9.9l12.31,5.69,2.1-4.54-14.41-6.66v-4.39l16.08,7.43,2.1-4.54-18.18-8.4V118l19.85,9.18,2.1-4.54-22-10.15v-4.39L129,119l2.1-4.54-25.72-11.89V98.19l27.39,12.66,2.1-4.54L105.33,92.68V88.29l31.16,14.41,2.1-4.54L105.33,82.78V73l0-.1,0,0V68.49l1.71.8,2.1-4.54L105.33,63v-4.4l5.49,2.54,2.09-4.54-7.58-3.5v-6L157.6,71.21l-47.1,101.9-5.17-2.39v-9.83l3.26,1.51,2.1-4.54ZM51,5h3.43A6.35,6.35,0,0,1,60.2,8.83H45.13A6.34,6.34,0,0,1,51,5ZM31.61,22.37v-5.8a2.5,2.5,0,0,1,2.5-2.49H71.22a2.5,2.5,0,0,1,2.49,2.49v9.92a3,3,0,0,1-2.94,3H34.56a3,3,0,0,1-3-3ZM5,24.87H26.61v1.62a8,8,0,0,0,8,8H70.77a8,8,0,0,0,7.94-7.95V24.87h21.62V170H5ZM76,175h26.79l0,0,10.18,4.73,51.29-111-58.9-27.22V36a8,8,0,0,0,4.34,5.2l32.88,15.19a8,8,0,0,0,10.54-3.88l.68-1.47,19.62,9.07L112.5,191.87Z"/></svg>