<svg id="Layer_1" data-name="Layer 1" xmlns="http://www.w3.org/2000/svg" viewBox="0 0 58.6 92"><defs><style>.cls-1{fill:#df1f29;}</style></defs><path class="cls-1" d="M33.7,91.5,58.32,60.39a1.33,1.33,0,0,0-.21-1.85L52.32,54a1.31,1.31,0,0,0-1.84.21L36.84,71.42a1.31,1.31,0,0,1-2.34-.81V1.31A1.32,1.32,0,0,0,33.18,0H25.81A1.31,1.31,0,0,0,24.5,1.31V71.1a1.31,1.31,0,0,1-2.34.82l-14-17.74A1.32,1.32,0,0,0,6.28,54L.5,58.54a1.32,1.32,0,0,0-.22,1.85L24.9,91.5a1.3,1.3,0,0,0,1,.5h6.74A1.27,1.27,0,0,0,33.7,91.5Z"/></svg>